STARTFONT 2.1
COMMENT 
COMMENT This file has been produced by ttf2bdf written by Subhabrata Biswas
COMMENT 
COMMENT For comments, questions, bug reports, send a mail to
COMMENT                                           subhabrata.biswas@usa.net
COMMENT 
FONT -*-Consolas-Bold-R-Normal--13-100-96-96-c-7--fontspecific
SIZE 10 96 96
FONTBOUNDINGBOX 15 15 -6 -4
STARTPROPERTIES 15
FOUNDRY "Misc"
FAMILY_NAME "Consolas"
WEIGHT_NAME "Bold"
SLANT "R"
SETWIDTH_NAME "Normal"
PIXEL_SIZE 7
POINT_SIZE 100
RESOLUTION_X 96
RESOLUTION_Y 96
SPACING "C"
CHARSET_ENCODING "fontspecific"
FONT_ASCENT 12
FONT_DESCENT 3
DEFAULT_CHAR 1
COPYRIGHT "You may wish to put your copyright here"
ENDPROPERTIES
CHARS 255
STARTCHAR C0001
ENCODING 1
SWIDTH 525 0
DWIDTH 7 0
BBX 6 8 1 0
BITMAP
FC
84
B4
B4
84
B4
84
FC
ENDCHAR
STARTCHAR C0002
ENCODING 2
SWIDTH 525 0
DWIDTH 7 0
BBX 6 8 1 0
BITMAP
FC
84
B4
B4
84
B4
84
FC
ENDCHAR
STARTCHAR C0003
ENCODING 3
SWIDTH 525 0
DWIDTH 7 0
BBX 6 8 1 0
BITMAP
FC
84
B4
B4
84
B4
84
FC
ENDCHAR
STARTCHAR C0004
ENCODING 4
SWIDTH 525 0
DWIDTH 7 0
BBX 6 8 1 0
BITMAP
FC
84
B4
B4
84
B4
84
FC
ENDCHAR
STARTCHAR C0005
ENCODING 5
SWIDTH 525 0
DWIDTH 7 0
BBX 6 8 1 0
BITMAP
FC
84
B4
B4
84
B4
84
FC
ENDCHAR
STARTCHAR C0006
ENCODING 6
SWIDTH 525 0
DWIDTH 7 0
BBX 6 8 1 0
BITMAP
FC
84
B4
B4
84
B4
84
FC
ENDCHAR
STARTCHAR C0007
ENCODING 7
SWIDTH 525 0
DWIDTH 7 0
BBX 6 8 1 0
BITMAP
FC
84
B4
B4
84
B4
84
FC
ENDCHAR
STARTCHAR C0008
ENCODING 8
SWIDTH 525 0
DWIDTH 7 0
BBX 6 8 1 0
BITMAP
FC
84
B4
B4
84
B4
84
FC
ENDCHAR
STARTCHAR C0009
ENCODING 9
SWIDTH 525 0
DWIDTH 7 0
BBX 6 8 1 0
BITMAP
FC
84
B4
B4
84
B4
84
FC
ENDCHAR
STARTCHAR C0010
ENCODING 10
SWIDTH 525 0
DWIDTH 7 0
BBX 6 8 1 0
BITMAP
FC
84
B4
B4
84
B4
84
FC
ENDCHAR
STARTCHAR C0011
ENCODING 11
SWIDTH 525 0
DWIDTH 7 0
BBX 6 8 1 0
BITMAP
FC
84
B4
B4
84
B4
84
FC
ENDCHAR
STARTCHAR C0012
ENCODING 12
SWIDTH 525 0
DWIDTH 7 0
BBX 6 8 1 0
BITMAP
FC
84
B4
B4
84
B4
84
FC
ENDCHAR
STARTCHAR C0013
ENCODING 13
SWIDTH 0 0
DWIDTH 0 0
BBX 1 1 0 -1
BITMAP
00
ENDCHAR
STARTCHAR C0014
ENCODING 14
SWIDTH 525 0
DWIDTH 7 0
BBX 6 8 1 0
BITMAP
FC
84
B4
B4
84
B4
84
FC
ENDCHAR
STARTCHAR C0015
ENCODING 15
SWIDTH 525 0
DWIDTH 7 0
BBX 6 8 1 0
BITMAP
FC
84
B4
B4
84
B4
84
FC
ENDCHAR
STARTCHAR C0016
ENCODING 16
SWIDTH 525 0
DWIDTH 7 0
BBX 6 8 1 0
BITMAP
FC
84
B4
B4
84
B4
84
FC
ENDCHAR
STARTCHAR C0017
ENCODING 17
SWIDTH 525 0
DWIDTH 7 0
BBX 6 8 1 0
BITMAP
FC
84
B4
B4
84
B4
84
FC
ENDCHAR
STARTCHAR C0018
ENCODING 18
SWIDTH 525 0
DWIDTH 7 0
BBX 6 8 1 0
BITMAP
FC
84
B4
B4
84
B4
84
FC
ENDCHAR
STARTCHAR C0019
ENCODING 19
SWIDTH 525 0
DWIDTH 7 0
BBX 6 8 1 0
BITMAP
FC
84
B4
B4
84
B4
84
FC
ENDCHAR
STARTCHAR C0020
ENCODING 20
SWIDTH 525 0
DWIDTH 7 0
BBX 6 8 1 0
BITMAP
FC
84
B4
B4
84
B4
84
FC
ENDCHAR
STARTCHAR C0021
ENCODING 21
SWIDTH 525 0
DWIDTH 7 0
BBX 6 8 1 0
BITMAP
FC
84
B4
B4
84
B4
84
FC
ENDCHAR
STARTCHAR C0022
ENCODING 22
SWIDTH 525 0
DWIDTH 7 0
BBX 6 8 1 0
BITMAP
FC
84
B4
B4
84
B4
84
FC
ENDCHAR
STARTCHAR C0023
ENCODING 23
SWIDTH 525 0
DWIDTH 7 0
BBX 6 8 1 0
BITMAP
FC
84
B4
B4
84
B4
84
FC
ENDCHAR
STARTCHAR C0024
ENCODING 24
SWIDTH 525 0
DWIDTH 7 0
BBX 6 8 1 0
BITMAP
FC
84
B4
B4
84
B4
84
FC
ENDCHAR
STARTCHAR C0025
ENCODING 25
SWIDTH 525 0
DWIDTH 7 0
BBX 6 8 1 0
BITMAP
FC
84
B4
B4
84
B4
84
FC
ENDCHAR
STARTCHAR C0026
ENCODING 26
SWIDTH 525 0
DWIDTH 7 0
BBX 6 8 1 0
BITMAP
FC
84
B4
B4
84
B4
84
FC
ENDCHAR
STARTCHAR C0027
ENCODING 27
SWIDTH 525 0
DWIDTH 7 0
BBX 6 8 1 0
BITMAP
FC
84
B4
B4
84
B4
84
FC
ENDCHAR
STARTCHAR C0028
ENCODING 28
SWIDTH 525 0
DWIDTH 7 0
BBX 6 8 1 0
BITMAP
FC
84
B4
B4
84
B4
84
FC
ENDCHAR
STARTCHAR C0029
ENCODING 29
SWIDTH 525 0
DWIDTH 7 0
BBX 6 8 1 0
BITMAP
FC
84
B4
B4
84
B4
84
FC
ENDCHAR
STARTCHAR C0030
ENCODING 30
SWIDTH 525 0
DWIDTH 7 0
BBX 6 8 1 0
BITMAP
FC
84
B4
B4
84
B4
84
FC
ENDCHAR
STARTCHAR C0031
ENCODING 31
SWIDTH 525 0
DWIDTH 7 0
BBX 6 8 1 0
BITMAP
FC
84
B4
B4
84
B4
84
FC
ENDCHAR
STARTCHAR C0032- 
ENCODING 32
SWIDTH 525 0
DWIDTH 7 0
BBX 1 1 0 -1
BITMAP
00
ENDCHAR
STARTCHAR C0033-!
ENCODING 33
SWIDTH 525 0
DWIDTH 7 0
BBX 2 9 3 0
BITMAP
C0
C0
C0
C0
C0
C0
00
C0
C0
ENDCHAR
STARTCHAR C0034-"
ENCODING 34
SWIDTH 525 0
DWIDTH 7 0
BBX 5 3 1 6
BITMAP
D8
D8
D8
ENDCHAR
STARTCHAR C0035-#
ENCODING 35
SWIDTH 525 0
DWIDTH 7 0
BBX 7 8 0 0
BITMAP
24
24
FE
24
48
FE
48
48
ENDCHAR
STARTCHAR C0036-$
ENCODING 36
SWIDTH 525 0
DWIDTH 7 0
BBX 6 12 1 -2
BITMAP
10
10
78
D0
D0
F0
3C
2C
2C
F8
20
20
ENDCHAR
STARTCHAR C0037-%
ENCODING 37
SWIDTH 525 0
DWIDTH 7 0
BBX 7 9 0 0
BITMAP
E2
A4
AC
E8
10
3C
34
54
DC
ENDCHAR
STARTCHAR C0038-&
ENCODING 38
SWIDTH 525 0
DWIDTH 7 0
BBX 8 9 0 0
BITMAP
38
6C
6C
6C
38
7E
CE
C6
7F
ENDCHAR
STARTCHAR C0039-'
ENCODING 39
SWIDTH 525 0
DWIDTH 7 0
BBX 2 3 3 6
BITMAP
C0
C0
C0
ENDCHAR
STARTCHAR C0040-(
ENCODING 40
SWIDTH 525 0
DWIDTH 7 0
BBX 4 12 2 -3
BITMAP
10
20
60
C0
C0
C0
C0
C0
C0
60
30
10
ENDCHAR
STARTCHAR C0041-)
ENCODING 41
SWIDTH 525 0
DWIDTH 7 0
BBX 4 12 1 -3
BITMAP
80
C0
60
30
30
30
30
30
30
60
40
80
ENDCHAR
STARTCHAR C0042-*
ENCODING 42
SWIDTH 525 0
DWIDTH 7 0
BBX 6 5 1 4
BITMAP
30
FC
30
FC
30
ENDCHAR
STARTCHAR C0043-+
ENCODING 43
SWIDTH 525 0
DWIDTH 7 0
BBX 6 5 1 1
BITMAP
30
30
FC
30
30
ENDCHAR
STARTCHAR C0044-,
ENCODING 44
SWIDTH 525 0
DWIDTH 7 0
BBX 3 5 1 -2
BITMAP
60
60
20
20
C0
ENDCHAR
STARTCHAR C0045--
ENCODING 45
SWIDTH 525 0
DWIDTH 7 0
BBX 4 1 2 3
BITMAP
F0
ENDCHAR
STARTCHAR C0046-.
ENCODING 46
SWIDTH 525 0
DWIDTH 7 0
BBX 2 2 2 0
BITMAP
C0
C0
ENDCHAR
STARTCHAR C0047-/
ENCODING 47
SWIDTH 525 0
DWIDTH 7 0
BBX 6 10 0 -1
BITMAP
08
18
18
10
30
20
60
60
40
C0
ENDCHAR
STARTCHAR C0048-0
ENCODING 48
SWIDTH 525 0
DWIDTH 7 0
BBX 7 8 0 0
BITMAP
3C
6C
CE
DE
F6
E6
6C
78
ENDCHAR
STARTCHAR C0049-1
ENCODING 49
SWIDTH 525 0
DWIDTH 7 0
BBX 6 8 1 0
BITMAP
30
70
B0
30
30
30
30
FC
ENDCHAR
STARTCHAR C0050-2
ENCODING 50
SWIDTH 525 0
DWIDTH 7 0
BBX 6 8 1 0
BITMAP
78
8C
0C
0C
18
30
60
FC
ENDCHAR
STARTCHAR C0051-3
ENCODING 51
SWIDTH 525 0
DWIDTH 7 0
BBX 6 8 1 0
BITMAP
F8
0C
0C
78
0C
0C
0C
F8
ENDCHAR
STARTCHAR C0052-4
ENCODING 52
SWIDTH 525 0
DWIDTH 7 0
BBX 7 8 0 0
BITMAP
1C
3C
2C
6C
CC
FE
0C
0C
ENDCHAR
STARTCHAR C0053-5
ENCODING 53
SWIDTH 525 0
DWIDTH 7 0
BBX 6 8 1 0
BITMAP
F8
C0
C0
F8
0C
0C
0C
F0
ENDCHAR
STARTCHAR C0054-6
ENCODING 54
SWIDTH 525 0
DWIDTH 7 0
BBX 6 8 1 0
BITMAP
38
60
C0
F8
CC
CC
CC
78
ENDCHAR
STARTCHAR C0055-7
ENCODING 55
SWIDTH 525 0
DWIDTH 7 0
BBX 6 8 1 0
BITMAP
FC
0C
18
18
30
20
60
40
ENDCHAR
STARTCHAR C0056-8
ENCODING 56
SWIDTH 525 0
DWIDTH 7 0
BBX 6 8 1 0
BITMAP
78
CC
CC
78
7C
CC
CC
78
ENDCHAR
STARTCHAR C0057-9
ENCODING 57
SWIDTH 525 0
DWIDTH 7 0
BBX 6 8 0 0
BITMAP
78
CC
CC
CC
7C
0C
18
70
ENDCHAR
STARTCHAR C0058-:
ENCODING 58
SWIDTH 525 0
DWIDTH 7 0
BBX 2 6 2 0
BITMAP
C0
C0
00
00
C0
C0
ENDCHAR
STARTCHAR C0059-;
ENCODING 59
SWIDTH 525 0
DWIDTH 7 0
BBX 3 8 2 -2
BITMAP
60
60
00
60
60
20
20
C0
ENDCHAR
STARTCHAR C0060-<
ENCODING 60
SWIDTH 525 0
DWIDTH 7 0
BBX 5 7 1 0
BITMAP
18
30
60
C0
60
30
18
ENDCHAR
STARTCHAR C0061-=
ENCODING 61
SWIDTH 525 0
DWIDTH 7 0
BBX 5 3 1 2
BITMAP
F8
00
F8
ENDCHAR
STARTCHAR C0062->
ENCODING 62
SWIDTH 525 0
DWIDTH 7 0
BBX 5 7 1 0
BITMAP
C0
60
30
18
30
60
C0
ENDCHAR
STARTCHAR C0063-?
ENCODING 63
SWIDTH 525 0
DWIDTH 7 0
BBX 5 9 2 0
BITMAP
E0
38
18
18
F0
C0
00
C0
C0
ENDCHAR
STARTCHAR C0064-@
ENCODING 64
SWIDTH 525 0
DWIDTH 7 0
BBX 7 12 0 -3
BITMAP
3C
64
42
7A
CA
DA
DA
DA
EC
80
40
78
ENDCHAR
STARTCHAR C0065-A
ENCODING 65
SWIDTH 525 0
DWIDTH 7 0
BBX 8 8 0 0
BITMAP
38
28
2C
2C
64
7E
46
42
ENDCHAR
STARTCHAR C0066-B
ENCODING 66
SWIDTH 525 0
DWIDTH 7 0
BBX 6 8 1 0
BITMAP
F8
CC
CC
F8
CC
CC
CC
F8
ENDCHAR
STARTCHAR C0067-C
ENCODING 67
SWIDTH 525 0
DWIDTH 7 0
BBX 6 8 1 0
BITMAP
3C
60
C0
C0
C0
C0
60
3C
ENDCHAR
STARTCHAR C0068-D
ENCODING 68
SWIDTH 525 0
DWIDTH 7 0
BBX 7 8 1 0
BITMAP
F8
CC
C6
C6
C6
C6
CC
F8
ENDCHAR
STARTCHAR C0069-E
ENCODING 69
SWIDTH 525 0
DWIDTH 7 0
BBX 5 8 1 0
BITMAP
F8
C0
C0
F8
C0
C0
C0
F8
ENDCHAR
STARTCHAR C0070-F
ENCODING 70
SWIDTH 525 0
DWIDTH 7 0
BBX 5 8 1 0
BITMAP
F8
C0
C0
C0
F8
C0
C0
C0
ENDCHAR
STARTCHAR C0071-G
ENCODING 71
SWIDTH 525 0
DWIDTH 7 0
BBX 7 8 0 0
BITMAP
3C
62
C0
C0
CE
C6
66
3E
ENDCHAR
STARTCHAR C0072-H
ENCODING 72
SWIDTH 525 0
DWIDTH 7 0
BBX 6 8 1 0
BITMAP
CC
CC
CC
FC
CC
CC
CC
CC
ENDCHAR
STARTCHAR C0073-I
ENCODING 73
SWIDTH 525 0
DWIDTH 7 0
BBX 4 8 2 0
BITMAP
F0
60
60
60
60
60
60
F0
ENDCHAR
STARTCHAR C0074-J
ENCODING 74
SWIDTH 525 0
DWIDTH 7 0
BBX 5 8 1 0
BITMAP
F8
18
18
18
18
18
98
70
ENDCHAR
STARTCHAR C0075-K
ENCODING 75
SWIDTH 525 0
DWIDTH 7 0
BBX 6 8 1 0
BITMAP
CC
D8
D0
F0
F0
D0
D8
CC
ENDCHAR
STARTCHAR C0076-L
ENCODING 76
SWIDTH 525 0
DWIDTH 7 0
BBX 5 8 1 0
BITMAP
C0
C0
C0
C0
C0
C0
C0
F8
ENDCHAR
STARTCHAR C0077-M
ENCODING 77
SWIDTH 525 0
DWIDTH 7 0
BBX 7 8 0 0
BITMAP
6C
6C
6C
6C
54
54
44
44
ENDCHAR
STARTCHAR C0078-N
ENCODING 78
SWIDTH 525 0
DWIDTH 7 0
BBX 7 8 1 0
BITMAP
E6
E6
F6
D6
D6
DE
CE
CE
ENDCHAR
STARTCHAR C0079-O
ENCODING 79
SWIDTH 525 0
DWIDTH 7 0
BBX 7 8 0 0
BITMAP
3C
64
C6
C6
C6
C6
6C
78
ENDCHAR
STARTCHAR C0080-P
ENCODING 80
SWIDTH 525 0
DWIDTH 7 0
BBX 6 8 1 0
BITMAP
F8
CC
CC
CC
F8
C0
C0
C0
ENDCHAR
STARTCHAR C0081-Q
ENCODING 81
SWIDTH 525 0
DWIDTH 7 0
BBX 7 11 0 -3
BITMAP
3C
64
C6
C6
C6
C6
EC
78
18
18
0E
ENDCHAR
STARTCHAR C0082-R
ENCODING 82
SWIDTH 525 0
DWIDTH 7 0
BBX 6 8 1 0
BITMAP
F8
CC
CC
CC
F0
D8
D8
CC
ENDCHAR
STARTCHAR C0083-S
ENCODING 83
SWIDTH 525 0
DWIDTH 7 0
BBX 6 8 1 0
BITMAP
78
C0
C0
F0
3C
0C
0C
F8
ENDCHAR
STARTCHAR C0084-T
ENCODING 84
SWIDTH 525 0
DWIDTH 7 0
BBX 6 8 1 0
BITMAP
FC
30
30
30
30
30
30
30
ENDCHAR
STARTCHAR C0085-U
ENCODING 85
SWIDTH 525 0
DWIDTH 7 0
BBX 6 8 1 0
BITMAP
CC
CC
CC
CC
CC
CC
CC
78
ENDCHAR
STARTCHAR C0086-V
ENCODING 86
SWIDTH 525 0
DWIDTH 7 0
BBX 9 8 -1 0
BITMAP
4100
6300
6300
2200
3600
3400
1C00
1C00
ENDCHAR
STARTCHAR C0087-W
ENCODING 87
SWIDTH 525 0
DWIDTH 7 0
BBX 7 8 0 0
BITMAP
44
44
54
54
6C
6C
6C
6C
ENDCHAR
STARTCHAR C0088-X
ENCODING 88
SWIDTH 525 0
DWIDTH 7 0
BBX 7 8 1 0
BITMAP
CC
78
78
30
38
58
CC
CC
ENDCHAR
STARTCHAR C0089-Y
ENCODING 89
SWIDTH 525 0
DWIDTH 7 0
BBX 8 8 0 0
BITMAP
C3
66
66
3C
18
18
18
18
ENDCHAR
STARTCHAR C0090-Z
ENCODING 90
SWIDTH 525 0
DWIDTH 7 0
BBX 6 8 1 0
BITMAP
FC
08
18
10
20
60
40
FC
ENDCHAR
STARTCHAR C0091-[
ENCODING 91
SWIDTH 525 0
DWIDTH 7 0
BBX 4 12 1 -3
BITMAP
F0
C0
C0
C0
C0
C0
C0
C0
C0
C0
C0
F0
ENDCHAR
STARTCHAR C0092-\
ENCODING 92
SWIDTH 525 0
DWIDTH 7 0
BBX 6 10 1 -1
BITMAP
C0
40
60
20
30
30
10
18
08
0C
ENDCHAR
STARTCHAR C0093-]
ENCODING 93
SWIDTH 525 0
DWIDTH 7 0
BBX 4 12 2 -3
BITMAP
F0
30
30
30
30
30
30
30
30
30
30
F0
ENDCHAR
STARTCHAR C0094-^
ENCODING 94
SWIDTH 525 0
DWIDTH 7 0
BBX 7 4 0 4
BITMAP
10
28
6C
6C
ENDCHAR
STARTCHAR C0095-_
ENCODING 95
SWIDTH 525 0
DWIDTH 7 0
BBX 7 1 0 -3
BITMAP
FE
ENDCHAR
STARTCHAR C0096-`
ENCODING 96
SWIDTH 525 0
DWIDTH 7 0
BBX 4 2 1 7
BITMAP
E0
70
ENDCHAR
STARTCHAR C0097-a
ENCODING 97
SWIDTH 525 0
DWIDTH 7 0
BBX 6 6 1 0
BITMAP
78
0C
7C
CC
CC
7C
ENDCHAR
STARTCHAR C0098-b
ENCODING 98
SWIDTH 525 0
DWIDTH 7 0
BBX 6 9 1 0
BITMAP
C0
C0
C0
F8
CC
CC
CC
CC
F8
ENDCHAR
STARTCHAR C0099-c
ENCODING 99
SWIDTH 525 0
DWIDTH 7 0
BBX 5 6 1 0
BITMAP
78
C0
C0
C0
C0
78
ENDCHAR
STARTCHAR C0100-d
ENCODING 100
SWIDTH 525 0
DWIDTH 7 0
BBX 6 9 0 0
BITMAP
0C
0C
0C
7C
CC
CC
CC
CC
7C
ENDCHAR
STARTCHAR C0101-e
ENCODING 101
SWIDTH 525 0
DWIDTH 7 0
BBX 6 6 1 0
BITMAP
78
CC
FC
C0
E0
7C
ENDCHAR
STARTCHAR C0102-f
ENCODING 102
SWIDTH 525 0
DWIDTH 7 0
BBX 5 9 1 0
BITMAP
38
60
60
60
F0
60
60
60
60
ENDCHAR
STARTCHAR C0103-g
ENCODING 103
SWIDTH 525 0
DWIDTH 7 0
BBX 7 9 0 -3
BITMAP
7E
CC
CC
F8
C0
FC
C6
C6
7C
ENDCHAR
STARTCHAR C0104-h
ENCODING 104
SWIDTH 525 0
DWIDTH 7 0
BBX 6 9 1 0
BITMAP
C0
C0
C0
F8
CC
CC
CC
CC
CC
ENDCHAR
STARTCHAR C0105-i
ENCODING 105
SWIDTH 525 0
DWIDTH 7 0
BBX 5 9 1 0
BITMAP
30
30
00
F0
30
30
30
30
F8
ENDCHAR
STARTCHAR C0106-j
ENCODING 106
SWIDTH 525 0
DWIDTH 7 0
BBX 5 12 1 -3
BITMAP
18
18
00
F8
18
18
18
18
18
18
98
70
ENDCHAR
STARTCHAR C0107-k
ENCODING 107
SWIDTH 525 0
DWIDTH 7 0
BBX 6 9 1 0
BITMAP
C0
C0
C0
CC
D8
F0
F8
D8
CC
ENDCHAR
STARTCHAR C0108-l
ENCODING 108
SWIDTH 525 0
DWIDTH 7 0
BBX 5 9 1 0
BITMAP
F0
30
30
30
30
30
30
30
F8
ENDCHAR
STARTCHAR C0109-m
ENCODING 109
SWIDTH 525 0
DWIDTH 7 0
BBX 8 6 0 0
BITMAP
FF
DB
DB
DB
DB
DB
ENDCHAR
STARTCHAR C0110-n
ENCODING 110
SWIDTH 525 0
DWIDTH 7 0
BBX 6 6 1 0
BITMAP
F8
CC
CC
CC
CC
CC
ENDCHAR
STARTCHAR C0111-o
ENCODING 111
SWIDTH 525 0
DWIDTH 7 0
BBX 7 6 0 0
BITMAP
7C
C6
C6
C6
C6
7C
ENDCHAR
STARTCHAR C0112-p
ENCODING 112
SWIDTH 525 0
DWIDTH 7 0
BBX 6 9 1 -3
BITMAP
F8
CC
CC
CC
CC
F8
C0
C0
C0
ENDCHAR
STARTCHAR C0113-q
ENCODING 113
SWIDTH 525 0
DWIDTH 7 0
BBX 6 9 0 -3
BITMAP
7C
CC
CC
CC
CC
7C
0C
0C
0C
ENDCHAR
STARTCHAR C0114-r
ENCODING 114
SWIDTH 525 0
DWIDTH 7 0
BBX 6 6 1 0
BITMAP
DC
EC
C0
C0
C0
C0
ENDCHAR
STARTCHAR C0115-s
ENCODING 115
SWIDTH 525 0
DWIDTH 7 0
BBX 6 6 1 0
BITMAP
78
C0
F0
3C
0C
F8
ENDCHAR
STARTCHAR C0116-t
ENCODING 116
SWIDTH 525 0
DWIDTH 7 0
BBX 6 8 0 0
BITMAP
30
30
FC
30
30
30
30
1C
ENDCHAR
STARTCHAR C0117-u
ENCODING 117
SWIDTH 525 0
DWIDTH 7 0
BBX 6 6 1 0
BITMAP
CC
CC
CC
CC
CC
7C
ENDCHAR
STARTCHAR C0118-v
ENCODING 118
SWIDTH 525 0
DWIDTH 7 0
BBX 7 6 0 0
BITMAP
44
6C
6C
28
28
38
ENDCHAR
STARTCHAR C0119-w
ENCODING 119
SWIDTH 525 0
DWIDTH 7 0
BBX 9 6 -1 0
BITMAP
4100
4100
4900
7700
3600
3600
ENDCHAR
STARTCHAR C0120-x
ENCODING 120
SWIDTH 525 0
DWIDTH 7 0
BBX 7 6 0 0
BITMAP
66
3C
18
28
2C
66
ENDCHAR
STARTCHAR C0121-y
ENCODING 121
SWIDTH 525 0
DWIDTH 7 0
BBX 7 9 0 -3
BITMAP
44
6C
6C
28
38
30
30
30
E0
ENDCHAR
STARTCHAR C0122-z
ENCODING 122
SWIDTH 525 0
DWIDTH 7 0
BBX 5 6 1 0
BITMAP
F8
10
30
60
40
F8
ENDCHAR
STARTCHAR C0123-{
ENCODING 123
SWIDTH 525 0
DWIDTH 7 0
BBX 6 12 0 -3
BITMAP
1C
30
30
30
30
E0
30
30
30
30
30
1C
ENDCHAR
STARTCHAR C0124-|
ENCODING 124
SWIDTH 525 0
DWIDTH 7 0
BBX 2 13 3 -3
BITMAP
C0
C0
C0
C0
C0
C0
C0
C0
C0
C0
C0
C0
C0
ENDCHAR
STARTCHAR C0125-}
ENCODING 125
SWIDTH 525 0
DWIDTH 7 0
BBX 6 12 1 -3
BITMAP
E0
30
30
30
30
1C
30
30
30
30
30
E0
ENDCHAR
STARTCHAR C0126-~
ENCODING 126
SWIDTH 525 0
DWIDTH 7 0
BBX 7 3 0 2
BITMAP
72
BA
9C
ENDCHAR
STARTCHAR C0127
ENCODING 127
SWIDTH 525 0
DWIDTH 7 0
BBX 6 8 1 0
BITMAP
FC
84
B4
B4
84
B4
84
FC
ENDCHAR
STARTCHAR C0128
ENCODING 128
SWIDTH 525 0
DWIDTH 7 0
BBX 6 8 0 0
BITMAP
3C
70
60
F8
60
F8
60
3C
ENDCHAR
STARTCHAR C0129
ENCODING 129
SWIDTH 525 0
DWIDTH 7 0
BBX 6 8 1 0
BITMAP
FC
84
B4
B4
84
B4
84
FC
ENDCHAR
STARTCHAR C0130
ENCODING 130
SWIDTH 525 0
DWIDTH 7 0
BBX 3 5 1 -3
BITMAP
60
60
20
60
C0
ENDCHAR
STARTCHAR C0131
ENCODING 131
SWIDTH 525 0
DWIDTH 7 0
BBX 7 11 0 -2
BITMAP
0E
18
18
18
7E
10
10
10
30
30
E0
ENDCHAR
STARTCHAR C0132
ENCODING 132
SWIDTH 525 0
DWIDTH 7 0
BBX 6 4 0 -2
BITMAP
6C
6C
24
D8
ENDCHAR
STARTCHAR C0133
ENCODING 133
SWIDTH 525 0
DWIDTH 7 0
BBX 6 2 0 0
BITMAP
FC
FC
ENDCHAR
STARTCHAR C0134
ENCODING 134
SWIDTH 525 0
DWIDTH 7 0
BBX 6 7 1 2
BITMAP
30
30
FC
30
30
30
30
ENDCHAR
STARTCHAR C0135
ENCODING 135
SWIDTH 525 0
DWIDTH 7 0
BBX 6 9 1 0
BITMAP
30
30
FC
30
30
30
FC
30
30
ENDCHAR
STARTCHAR C0136
ENCODING 136
SWIDTH 525 0
DWIDTH 7 0
BBX 5 2 1 7
BITMAP
20
70
ENDCHAR
STARTCHAR C0137
ENCODING 137
SWIDTH 525 0
DWIDTH 7 0
BBX 7 9 0 0
BITMAP
60
A0
A2
FC
70
EE
DA
DA
6E
ENDCHAR
STARTCHAR C0138
ENCODING 138
SWIDTH 525 0
DWIDTH 7 0
BBX 6 11 1 0
BITMAP
70
20
00
78
C0
C0
F0
3C
0C
0C
F8
ENDCHAR
STARTCHAR C0139
ENCODING 139
SWIDTH 525 0
DWIDTH 7 0
BBX 4 6 1 0
BITMAP
30
60
C0
C0
60
30
ENDCHAR
STARTCHAR C0140
ENCODING 140
SWIDTH 525 0
DWIDTH 7 0
BBX 7 8 0 0
BITMAP
3E
6C
CC
CE
CC
CC
EC
7E
ENDCHAR
STARTCHAR C0141
ENCODING 141
SWIDTH 525 0
DWIDTH 7 0
BBX 6 8 1 0
BITMAP
FC
84
B4
B4
84
B4
84
FC
ENDCHAR
STARTCHAR C0142
ENCODING 142
SWIDTH 525 0
DWIDTH 7 0
BBX 6 11 1 0
BITMAP
70
20
00
FC
08
18
10
20
60
40
FC
ENDCHAR
STARTCHAR C0143
ENCODING 143
SWIDTH 525 0
DWIDTH 7 0
BBX 6 8 1 0
BITMAP
FC
84
B4
B4
84
B4
84
FC
ENDCHAR
STARTCHAR C0144
ENCODING 144
SWIDTH 525 0
DWIDTH 7 0
BBX 6 8 1 0
BITMAP
FC
84
B4
B4
84
B4
84
FC
ENDCHAR
STARTCHAR C0145
ENCODING 145
SWIDTH 525 0
DWIDTH 7 0
BBX 3 5 2 4
BITMAP
60
80
80
C0
C0
ENDCHAR
STARTCHAR C0146
ENCODING 146
SWIDTH 525 0
DWIDTH 7 0
BBX 3 5 1 4
BITMAP
60
60
20
20
C0
ENDCHAR
STARTCHAR C0147
ENCODING 147
SWIDTH 525 0
DWIDTH 7 0
BBX 6 4 0 5
BITMAP
6C
90
D8
D8
ENDCHAR
STARTCHAR C0148
ENCODING 148
SWIDTH 525 0
DWIDTH 7 0
BBX 6 4 0 5
BITMAP
6C
6C
24
D8
ENDCHAR
STARTCHAR C0149
ENCODING 149
SWIDTH 525 0
DWIDTH 7 0
BBX 5 5 1 1
BITMAP
70
F8
F8
F8
70
ENDCHAR
STARTCHAR C0150
ENCODING 150
SWIDTH 525 0
DWIDTH 7 0
BBX 5 1 1 3
BITMAP
F8
ENDCHAR
STARTCHAR C0151
ENCODING 151
SWIDTH 525 0
DWIDTH 7 0
BBX 7 1 0 3
BITMAP
FE
ENDCHAR
STARTCHAR C0152
ENCODING 152
SWIDTH 525 0
DWIDTH 7 0
BBX 5 2 2 7
BITMAP
E8
B8
ENDCHAR
STARTCHAR C0153
ENCODING 153
SWIDTH 525 0
DWIDTH 7 0
BBX 8 3 0 5
BITMAP
FA
5A
56
ENDCHAR
STARTCHAR C0154
ENCODING 154
SWIDTH 525 0
DWIDTH 7 0
BBX 6 9 1 0
BITMAP
70
20
00
78
C0
F0
3C
0C
F8
ENDCHAR
STARTCHAR C0155
ENCODING 155
SWIDTH 525 0
DWIDTH 7 0
BBX 4 6 2 0
BITMAP
C0
60
30
30
60
C0
ENDCHAR
STARTCHAR C0156
ENCODING 156
SWIDTH 525 0
DWIDTH 7 0
BBX 7 6 0 0
BITMAP
6C
92
9E
90
90
6E
ENDCHAR
STARTCHAR C0157
ENCODING 157
SWIDTH 525 0
DWIDTH 7 0
BBX 6 8 1 0
BITMAP
FC
84
B4
B4
84
B4
84
FC
ENDCHAR
STARTCHAR C0158
ENCODING 158
SWIDTH 525 0
DWIDTH 7 0
BBX 5 9 1 0
BITMAP
70
20
00
F8
10
30
60
40
F8
ENDCHAR
STARTCHAR C0159
ENCODING 159
SWIDTH 525 0
DWIDTH 7 0
BBX 8 11 0 0
BITMAP
6C
6C
00
C3
66
66
3C
18
18
18
18
ENDCHAR
STARTCHAR C0160
ENCODING 160
SWIDTH 525 0
DWIDTH 7 0
BBX 1 1 0 -1
BITMAP
00
ENDCHAR
STARTCHAR C0161
ENCODING 161
SWIDTH 525 0
DWIDTH 7 0
BBX 2 9 3 -3
BITMAP
C0
C0
00
C0
C0
C0
C0
C0
C0
ENDCHAR
STARTCHAR C0162
ENCODING 162
SWIDTH 525 0
DWIDTH 7 0
BBX 5 11 1 -2
BITMAP
08
08
78
D0
D0
D0
D0
78
20
20
20
ENDCHAR
STARTCHAR C0163
ENCODING 163
SWIDTH 525 0
DWIDTH 7 0
BBX 6 8 0 0
BITMAP
38
64
60
60
F8
60
60
FC
ENDCHAR
STARTCHAR C0164
ENCODING 164
SWIDTH 525 0
DWIDTH 7 0
BBX 6 8 0 0
BITMAP
84
78
78
78
78
78
78
84
ENDCHAR
STARTCHAR C0165
ENCODING 165
SWIDTH 525 0
DWIDTH 7 0
BBX 8 8 0 0
BITMAP
C3
66
3C
18
7E
18
7E
18
ENDCHAR
STARTCHAR C0166
ENCODING 166
SWIDTH 525 0
DWIDTH 7 0
BBX 2 13 3 -3
BITMAP
C0
C0
C0
C0
C0
00
00
00
C0
C0
C0
C0
C0
ENDCHAR
STARTCHAR C0167
ENCODING 167
SWIDTH 525 0
DWIDTH 7 0
BBX 6 11 1 -2
BITMAP
38
60
60
78
DC
CC
EC
78
18
18
F0
ENDCHAR
STARTCHAR C0168
ENCODING 168
SWIDTH 525 0
DWIDTH 7 0
BBX 5 2 1 7
BITMAP
D8
D8
ENDCHAR
STARTCHAR C0169
ENCODING 169
SWIDTH 525 0
DWIDTH 7 0
BBX 7 8 0 0
BITMAP
38
44
9A
B2
B2
9A
44
38
ENDCHAR
STARTCHAR C0170
ENCODING 170
SWIDTH 525 0
DWIDTH 7 0
BBX 4 7 1 2
BITMAP
F0
10
70
D0
F0
00
F0
ENDCHAR
STARTCHAR C0171
ENCODING 171
SWIDTH 525 0
DWIDTH 7 0
BBX 6 5 1 1
BITMAP
64
6C
D8
6C
6C
ENDCHAR
STARTCHAR C0172
ENCODING 172
SWIDTH 525 0
DWIDTH 7 0
BBX 6 3 1 1
BITMAP
FC
0C
0C
ENDCHAR
STARTCHAR C0173
ENCODING 173
SWIDTH 525 0
DWIDTH 7 0
BBX 4 1 2 3
BITMAP
F0
ENDCHAR
STARTCHAR C0174
ENCODING 174
SWIDTH 525 0
DWIDTH 7 0
BBX 7 6 0 3
BITMAP
38
C6
BA
AA
C6
38
ENDCHAR
STARTCHAR C0175
ENCODING 175
SWIDTH 525 0
DWIDTH 7 0
BBX 4 1 2 7
BITMAP
F0
ENDCHAR
STARTCHAR C0176
ENCODING 176
SWIDTH 525 0
DWIDTH 7 0
BBX 6 4 1 5
BITMAP
78
CC
CC
78
ENDCHAR
STARTCHAR C0177
ENCODING 177
SWIDTH 525 0
DWIDTH 7 0
BBX 6 7 1 0
BITMAP
30
30
FC
30
30
00
FC
ENDCHAR
STARTCHAR C0178
ENCODING 178
SWIDTH 525 0
DWIDTH 7 0
BBX 4 5 2 4
BITMAP
F0
30
30
60
F0
ENDCHAR
STARTCHAR C0179
ENCODING 179
SWIDTH 525 0
DWIDTH 7 0
BBX 5 5 2 4
BITMAP
F8
18
70
18
F0
ENDCHAR
STARTCHAR C0180
ENCODING 180
SWIDTH 525 0
DWIDTH 7 0
BBX 4 2 3 7
BITMAP
70
E0
ENDCHAR
STARTCHAR C0181
ENCODING 181
SWIDTH 525 0
DWIDTH 7 0
BBX 7 9 1 -3
BITMAP
CC
CC
CC
CC
DC
FE
C0
C0
C0
ENDCHAR
STARTCHAR C0182
ENCODING 182
SWIDTH 525 0
DWIDTH 7 0
BBX 7 11 0 -2
BITMAP
3E
F6
F6
F6
F6
76
06
06
06
46
3C
ENDCHAR
STARTCHAR C0183
ENCODING 183
SWIDTH 525 0
DWIDTH 7 0
BBX 2 2 2 2
BITMAP
C0
C0
ENDCHAR
STARTCHAR C0184
ENCODING 184
SWIDTH 525 0
DWIDTH 7 0
BBX 3 2 2 -2
BITMAP
60
C0
ENDCHAR
STARTCHAR C0185
ENCODING 185
SWIDTH 525 0
DWIDTH 7 0
BBX 4 5 2 4
BITMAP
60
E0
60
60
F0
ENDCHAR
STARTCHAR C0186
ENCODING 186
SWIDTH 525 0
DWIDTH 7 0
BBX 6 7 1 2
BITMAP
78
CC
CC
CC
78
00
FC
ENDCHAR
STARTCHAR C0187
ENCODING 187
SWIDTH 525 0
DWIDTH 7 0
BBX 6 5 1 1
BITMAP
90
D8
6C
D8
90
ENDCHAR
STARTCHAR C0188
ENCODING 188
SWIDTH 525 0
DWIDTH 7 0
BBX 7 9 0 0
BITMAP
42
C4
4C
48
10
3C
34
5E
C4
ENDCHAR
STARTCHAR C0189
ENCODING 189
SWIDTH 525 0
DWIDTH 7 0
BBX 7 9 0 0
BITMAP
42
C4
4C
48
10
3E
22
44
CE
ENDCHAR
STARTCHAR C0190
ENCODING 190
SWIDTH 525 0
DWIDTH 7 0
BBX 7 9 0 0
BITMAP
E2
E4
2C
E8
10
3C
3C
5E
C4
ENDCHAR
STARTCHAR C0191
ENCODING 191
SWIDTH 525 0
DWIDTH 7 0
BBX 5 9 0 -3
BITMAP
18
18
00
18
78
C0
C0
E0
38
ENDCHAR
STARTCHAR C0192
ENCODING 192
SWIDTH 525 0
DWIDTH 7 0
BBX 8 11 0 0
BITMAP
70
38
00
38
28
2C
2C
64
7E
46
42
ENDCHAR
STARTCHAR C0193
ENCODING 193
SWIDTH 525 0
DWIDTH 7 0
BBX 8 11 0 0
BITMAP
0C
18
00
38
28
2C
2C
64
7E
46
42
ENDCHAR
STARTCHAR C0194
ENCODING 194
SWIDTH 525 0
DWIDTH 7 0
BBX 8 11 0 0
BITMAP
10
38
00
38
28
2C
2C
64
7E
46
42
ENDCHAR
STARTCHAR C0195
ENCODING 195
SWIDTH 525 0
DWIDTH 7 0
BBX 8 11 0 0
BITMAP
74
5C
00
38
28
2C
2C
64
7E
46
42
ENDCHAR
STARTCHAR C0196
ENCODING 196
SWIDTH 525 0
DWIDTH 7 0
BBX 8 11 0 0
BITMAP
6C
6C
00
38
28
2C
2C
64
7E
46
42
ENDCHAR
STARTCHAR C0197
ENCODING 197
SWIDTH 525 0
DWIDTH 7 0
BBX 8 11 0 0
BITMAP
38
28
38
38
28
2C
2C
64
7E
46
42
ENDCHAR
STARTCHAR C0198
ENCODING 198
SWIDTH 525 0
DWIDTH 7 0
BBX 8 8 -1 0
BITMAP
1F
1C
2C
2F
6C
7C
4C
CF
ENDCHAR
STARTCHAR C0199
ENCODING 199
SWIDTH 525 0
DWIDTH 7 0
BBX 6 10 1 -2
BITMAP
3C
60
C0
C0
C0
C0
60
7C
18
30
ENDCHAR
STARTCHAR C0200
ENCODING 200
SWIDTH 525 0
DWIDTH 7 0
BBX 5 11 1 0
BITMAP
E0
70
00
F8
C0
C0
F8
C0
C0
C0
F8
ENDCHAR
STARTCHAR C0201
ENCODING 201
SWIDTH 525 0
DWIDTH 7 0
BBX 5 11 1 0
BITMAP
18
30
00
F8
C0
C0
F8
C0
C0
C0
F8
ENDCHAR
STARTCHAR C0202
ENCODING 202
SWIDTH 525 0
DWIDTH 7 0
BBX 5 11 1 0
BITMAP
20
70
00
F8
C0
C0
F8
C0
C0
C0
F8
ENDCHAR
STARTCHAR C0203
ENCODING 203
SWIDTH 525 0
DWIDTH 7 0
BBX 5 11 1 0
BITMAP
D8
D8
00
F8
C0
C0
F8
C0
C0
C0
F8
ENDCHAR
STARTCHAR C0204
ENCODING 204
SWIDTH 525 0
DWIDTH 7 0
BBX 5 11 1 0
BITMAP
E0
70
00
78
30
30
30
30
30
30
78
ENDCHAR
STARTCHAR C0205
ENCODING 205
SWIDTH 525 0
DWIDTH 7 0
BBX 4 11 2 0
BITMAP
30
60
00
F0
60
60
60
60
60
60
F0
ENDCHAR
STARTCHAR C0206
ENCODING 206
SWIDTH 525 0
DWIDTH 7 0
BBX 5 11 1 0
BITMAP
20
70
00
78
30
30
30
30
30
30
78
ENDCHAR
STARTCHAR C0207
ENCODING 207
SWIDTH 525 0
DWIDTH 7 0
BBX 5 11 1 0
BITMAP
D8
D8
00
78
30
30
30
30
30
30
78
ENDCHAR
STARTCHAR C0208
ENCODING 208
SWIDTH 525 0
DWIDTH 7 0
BBX 7 8 0 0
BITMAP
7C
64
66
F6
66
66
6C
78
ENDCHAR
STARTCHAR C0209
ENCODING 209
SWIDTH 525 0
DWIDTH 7 0
BBX 7 11 1 0
BITMAP
E8
B8
00
E6
E6
F6
D6
D6
DE
CE
CE
ENDCHAR
STARTCHAR C0210
ENCODING 210
SWIDTH 525 0
DWIDTH 7 0
BBX 7 11 0 0
BITMAP
70
38
00
3C
64
C6
C6
C6
C6
6C
78
ENDCHAR
STARTCHAR C0211
ENCODING 211
SWIDTH 525 0
DWIDTH 7 0
BBX 7 11 0 0
BITMAP
0C
18
00
3C
64
C6
C6
C6
C6
6C
78
ENDCHAR
STARTCHAR C0212
ENCODING 212
SWIDTH 525 0
DWIDTH 7 0
BBX 7 11 0 0
BITMAP
10
38
00
3C
64
C6
C6
C6
C6
6C
78
ENDCHAR
STARTCHAR C0213
ENCODING 213
SWIDTH 525 0
DWIDTH 7 0
BBX 7 11 0 0
BITMAP
74
5C
00
3C
64
C6
C6
C6
C6
6C
78
ENDCHAR
STARTCHAR C0214
ENCODING 214
SWIDTH 525 0
DWIDTH 7 0
BBX 7 11 0 0
BITMAP
6C
6C
00
3C
64
C6
C6
C6
C6
6C
78
ENDCHAR
STARTCHAR C0215
ENCODING 215
SWIDTH 525 0
DWIDTH 7 0
BBX 7 7 0 0
BITMAP
00
66
7C
3C
7C
66
00
ENDCHAR
STARTCHAR C0216
ENCODING 216
SWIDTH 525 0
DWIDTH 7 0
BBX 7 10 0 -1
BITMAP
04
3C
6C
DE
D6
D6
F6
6C
78
40
ENDCHAR
STARTCHAR C0217
ENCODING 217
SWIDTH 525 0
DWIDTH 7 0
BBX 6 11 1 0
BITMAP
E0
70
00
CC
CC
CC
CC
CC
CC
CC
78
ENDCHAR
STARTCHAR C0218
ENCODING 218
SWIDTH 525 0
DWIDTH 7 0
BBX 6 11 1 0
BITMAP
18
30
00
CC
CC
CC
CC
CC
CC
CC
78
ENDCHAR
STARTCHAR C0219
ENCODING 219
SWIDTH 525 0
DWIDTH 7 0
BBX 6 11 1 0
BITMAP
20
70
00
CC
CC
CC
CC
CC
CC
CC
78
ENDCHAR
STARTCHAR C0220
ENCODING 220
SWIDTH 525 0
DWIDTH 7 0
BBX 6 11 1 0
BITMAP
D8
D8
00
CC
CC
CC
CC
CC
CC
CC
78
ENDCHAR
STARTCHAR C0221
ENCODING 221
SWIDTH 525 0
DWIDTH 7 0
BBX 8 11 0 0
BITMAP
0C
18
00
C3
66
66
3C
18
18
18
18
ENDCHAR
STARTCHAR C0222
ENCODING 222
SWIDTH 525 0
DWIDTH 7 0
BBX 6 8 1 0
BITMAP
C0
F8
CC
CC
CC
CC
F8
C0
ENDCHAR
STARTCHAR C0223
ENCODING 223
SWIDTH 525 0
DWIDTH 7 0
BBX 6 9 1 0
BITMAP
70
D8
D8
F0
F0
F8
CC
CC
F8
ENDCHAR
STARTCHAR C0224
ENCODING 224
SWIDTH 525 0
DWIDTH 7 0
BBX 6 9 1 0
BITMAP
E0
70
00
78
0C
7C
CC
CC
7C
ENDCHAR
STARTCHAR C0225
ENCODING 225
SWIDTH 525 0
DWIDTH 7 0
BBX 6 9 1 0
BITMAP
1C
38
00
78
0C
7C
CC
CC
7C
ENDCHAR
STARTCHAR C0226
ENCODING 226
SWIDTH 525 0
DWIDTH 7 0
BBX 6 9 1 0
BITMAP
20
70
00
78
0C
7C
CC
CC
7C
ENDCHAR
STARTCHAR C0227
ENCODING 227
SWIDTH 525 0
DWIDTH 7 0
BBX 6 9 1 0
BITMAP
74
5C
00
78
0C
7C
CC
CC
7C
ENDCHAR
STARTCHAR C0228
ENCODING 228
SWIDTH 525 0
DWIDTH 7 0
BBX 6 9 1 0
BITMAP
D8
D8
00
78
0C
7C
CC
CC
7C
ENDCHAR
STARTCHAR C0229
ENCODING 229
SWIDTH 525 0
DWIDTH 7 0
BBX 6 10 1 0
BITMAP
70
50
70
00
78
0C
7C
CC
CC
7C
ENDCHAR
STARTCHAR C0230
ENCODING 230
SWIDTH 525 0
DWIDTH 7 0
BBX 7 6 0 0
BITMAP
FC
12
7E
D0
D0
EE
ENDCHAR
STARTCHAR C0231
ENCODING 231
SWIDTH 525 0
DWIDTH 7 0
BBX 5 8 1 -2
BITMAP
78
C0
C0
C0
C0
78
30
20
ENDCHAR
STARTCHAR C0232
ENCODING 232
SWIDTH 525 0
DWIDTH 7 0
BBX 6 9 1 0
BITMAP
E0
70
00
78
CC
FC
C0
E0
7C
ENDCHAR
STARTCHAR C0233
ENCODING 233
SWIDTH 525 0
DWIDTH 7 0
BBX 6 9 1 0
BITMAP
1C
38
00
78
CC
FC
C0
E0
7C
ENDCHAR
STARTCHAR C0234
ENCODING 234
SWIDTH 525 0
DWIDTH 7 0
BBX 6 9 1 0
BITMAP
20
70
00
78
CC
FC
C0
E0
7C
ENDCHAR
STARTCHAR C0235
ENCODING 235
SWIDTH 525 0
DWIDTH 7 0
BBX 6 9 1 0
BITMAP
D8
D8
00
78
CC
FC
C0
E0
7C
ENDCHAR
STARTCHAR C0236
ENCODING 236
SWIDTH 525 0
DWIDTH 7 0
BBX 5 9 1 0
BITMAP
E0
70
00
F0
30
30
30
30
F8
ENDCHAR
STARTCHAR C0237
ENCODING 237
SWIDTH 525 0
DWIDTH 7 0
BBX 6 9 1 0
BITMAP
1C
38
00
F0
30
30
30
30
F8
ENDCHAR
STARTCHAR C0238
ENCODING 238
SWIDTH 525 0
DWIDTH 7 0
BBX 5 9 1 0
BITMAP
20
70
00
F0
30
30
30
30
F8
ENDCHAR
STARTCHAR C0239
ENCODING 239
SWIDTH 525 0
DWIDTH 7 0
BBX 5 9 1 0
BITMAP
D8
D8
00
F0
30
30
30
30
F8
ENDCHAR
STARTCHAR C0240
ENCODING 240
SWIDTH 525 0
DWIDTH 7 0
BBX 6 9 0 0
BITMAP
78
70
18
7C
CC
CC
CC
CC
78
ENDCHAR
STARTCHAR C0241
ENCODING 241
SWIDTH 525 0
DWIDTH 7 0
BBX 6 9 1 0
BITMAP
74
5C
00
F8
CC
CC
CC
CC
CC
ENDCHAR
STARTCHAR C0242
ENCODING 242
SWIDTH 525 0
DWIDTH 7 0
BBX 7 9 0 0
BITMAP
70
38
00
7C
C6
C6
C6
C6
7C
ENDCHAR
STARTCHAR C0243
ENCODING 243
SWIDTH 525 0
DWIDTH 7 0
BBX 7 9 0 0
BITMAP
0E
1C
00
7C
C6
C6
C6
C6
7C
ENDCHAR
STARTCHAR C0244
ENCODING 244
SWIDTH 525 0
DWIDTH 7 0
BBX 7 9 0 0
BITMAP
10
38
00
7C
C6
C6
C6
C6
7C
ENDCHAR
STARTCHAR C0245
ENCODING 245
SWIDTH 525 0
DWIDTH 7 0
BBX 7 9 0 0
BITMAP
3A
2E
00
7C
C6
C6
C6
C6
7C
ENDCHAR
STARTCHAR C0246
ENCODING 246
SWIDTH 525 0
DWIDTH 7 0
BBX 7 9 0 0
BITMAP
6C
6C
00
7C
C6
C6
C6
C6
7C
ENDCHAR
STARTCHAR C0247
ENCODING 247
SWIDTH 525 0
DWIDTH 7 0
BBX 6 7 1 0
BITMAP
30
30
00
FC
00
30
30
ENDCHAR
STARTCHAR C0248
ENCODING 248
SWIDTH 525 0
DWIDTH 7 0
BBX 7 8 0 -1
BITMAP
04
7C
CE
D6
D6
E6
7C
40
ENDCHAR
STARTCHAR C0249
ENCODING 249
SWIDTH 525 0
DWIDTH 7 0
BBX 6 9 1 0
BITMAP
E0
70
00
CC
CC
CC
CC
CC
7C
ENDCHAR
STARTCHAR C0250
ENCODING 250
SWIDTH 525 0
DWIDTH 7 0
BBX 6 9 1 0
BITMAP
1C
38
00
CC
CC
CC
CC
CC
7C
ENDCHAR
STARTCHAR C0251
ENCODING 251
SWIDTH 525 0
DWIDTH 7 0
BBX 6 9 1 0
BITMAP
20
70
00
CC
CC
CC
CC
CC
7C
ENDCHAR
STARTCHAR C0252
ENCODING 252
SWIDTH 525 0
DWIDTH 7 0
BBX 6 9 1 0
BITMAP
D8
D8
00
CC
CC
CC
CC
CC
7C
ENDCHAR
STARTCHAR C0253
ENCODING 253
SWIDTH 525 0
DWIDTH 7 0
BBX 7 12 0 -3
BITMAP
0E
1C
00
44
6C
6C
28
38
30
30
30
E0
ENDCHAR
STARTCHAR C0254
ENCODING 254
SWIDTH 525 0
DWIDTH 7 0
BBX 6 12 1 -3
BITMAP
C0
C0
C0
F8
CC
CC
CC
CC
F8
C0
C0
C0
ENDCHAR
STARTCHAR C0255
ENCODING 255
SWIDTH 525 0
DWIDTH 7 0
BBX 7 12 0 -3
BITMAP
6C
6C
00
44
6C
6C
28
38
30
30
30
E0
ENDCHAR
ENDFONT

